<mxfile host="app.diagrams.net" modified="2020-12-07T10:54:01.284Z" agent="5.0 (Windows)" etag="WHdn6ow8H8cKVLoXjO0p" version="13.10.9" type="github">
  <diagram id="uzbKtm6OhF9Lw1mfzs1N" name="Page-1">
    <mxGraphModel dx="1038" dy="575" grid="1" gridSize="10" guides="1" tooltips="1" connect="1" arrows="1" fold="1" page="1" pageScale="1" pageWidth="827" pageHeight="1169" math="0" shadow="0">
      <root>
        <mxCell id="0" />
        <mxCell id="1" parent="0" />
        <mxCell id="jdVANcnuj8nwFvmUPl1E-2" value="&lt;h1&gt;Enoncé&lt;br&gt;&lt;/h1&gt;&lt;p&gt;Considérons une station-service de distribution d’essence.&lt;br&gt;&lt;/p&gt;&lt;p&gt;Les clients se servent de l’essence et le pompiste remplit les cuves.&lt;br&gt;Le client se sert de l’essence de la façon suivante :&lt;br&gt;il prend un pistolet accroché à une pompe et appuie sur la gâchette pour prendre de l’essence.&lt;/p&gt;&lt;p&gt;Qui est l’acteur du système : le client, le pistolet, la pompe, l’essence ou la gâchette ? (Rep: Le client)&lt;br&gt;&lt;/p&gt;&lt;p&gt;Jojo, dont le métier est pompiste, veut se servir de l’essence pour sa voiture.Pour modéliser cette activité de Jojo, doit-on définir un nouvel acteur ? (Rep : non) Dessiner le diagramme de cas d’utilisation correspondant.&lt;/p&gt;&lt;p&gt;Lorsque Jojo vient avec son camion citerne pour remplir les réservoirs des pompes, est-il considéré comme un nouvel acteur ?&lt;br&gt;Enrichir le diagramme de cas d’utilisation précédent.&lt;/p&gt;&lt;p&gt;Parmi les pompistes, certains sont également qualifiés pour opérer des opérations de maintenance en plus des opérations habituelles des pompistes telles que le remplissage des réservoirs. Ils restent pompiste mais on les appelle techniciens.&lt;br&gt;Enrichir encore le diagramme de cas d’utilisation.&lt;/p&gt;" style="text;html=1;strokeColor=none;fillColor=none;spacing=5;spacingTop=-20;whiteSpace=wrap;overflow=hidden;rounded=0;fontSize=12;align=left;" vertex="1" parent="1">
          <mxGeometry x="10" y="10" width="810" height="290" as="geometry" />
        </mxCell>
        <mxCell id="jdVANcnuj8nwFvmUPl1E-3" value="Station service" style="shape=umlFrame;whiteSpace=wrap;html=1;fontSize=12;align=left;" vertex="1" parent="1">
          <mxGeometry x="120" y="320" width="560" height="400" as="geometry" />
        </mxCell>
        <mxCell id="jdVANcnuj8nwFvmUPl1E-19" value="" style="edgeStyle=orthogonalEdgeStyle;rounded=0;orthogonalLoop=1;jettySize=auto;html=1;endArrow=block;endFill=0;fontSize=12;entryX=0.5;entryY=0;entryDx=0;entryDy=0;entryPerimeter=0;" edge="1" parent="1" source="jdVANcnuj8nwFvmUPl1E-4" target="jdVANcnuj8nwFvmUPl1E-18">
          <mxGeometry relative="1" as="geometry">
            <mxPoint x="55" y="490" as="targetPoint" />
          </mxGeometry>
        </mxCell>
        <mxCell id="jdVANcnuj8nwFvmUPl1E-4" value="Technicien" style="shape=umlActor;verticalLabelPosition=bottom;verticalAlign=top;html=1;fontSize=12;align=center;" vertex="1" parent="1">
          <mxGeometry x="40" y="360" width="30" height="60" as="geometry" />
        </mxCell>
        <mxCell id="jdVANcnuj8nwFvmUPl1E-8" value="Remplir les&lt;br&gt;réservoirs" style="ellipse;whiteSpace=wrap;html=1;fontSize=12;align=center;" vertex="1" parent="1">
          <mxGeometry x="150" y="495" width="140" height="70" as="geometry" />
        </mxCell>
        <mxCell id="jdVANcnuj8nwFvmUPl1E-9" value="Prendre de l&#39;essence" style="ellipse;whiteSpace=wrap;html=1;fontSize=12;align=center;" vertex="1" parent="1">
          <mxGeometry x="150" y="635" width="140" height="70" as="geometry" />
        </mxCell>
        <mxCell id="jdVANcnuj8nwFvmUPl1E-21" value="" style="edgeStyle=orthogonalEdgeStyle;rounded=0;orthogonalLoop=1;jettySize=auto;html=1;endArrow=block;endFill=0;fontSize=12;" edge="1" parent="1" source="jdVANcnuj8nwFvmUPl1E-18" target="jdVANcnuj8nwFvmUPl1E-20">
          <mxGeometry relative="1" as="geometry">
            <mxPoint x="70" y="600" as="sourcePoint" />
          </mxGeometry>
        </mxCell>
        <mxCell id="jdVANcnuj8nwFvmUPl1E-18" value="Pompiste" style="shape=umlActor;verticalLabelPosition=bottom;verticalAlign=top;html=1;fontSize=12;align=center;" vertex="1" parent="1">
          <mxGeometry x="40" y="500" width="30" height="60" as="geometry" />
        </mxCell>
        <mxCell id="jdVANcnuj8nwFvmUPl1E-20" value="&lt;div&gt;Client&lt;/div&gt;" style="shape=umlActor;verticalLabelPosition=bottom;verticalAlign=top;html=1;fontSize=12;align=left;" vertex="1" parent="1">
          <mxGeometry x="40" y="640" width="30" height="60" as="geometry" />
        </mxCell>
        <mxCell id="jdVANcnuj8nwFvmUPl1E-22" value="Maintenir" style="ellipse;whiteSpace=wrap;html=1;fontSize=12;align=center;" vertex="1" parent="1">
          <mxGeometry x="150" y="355" width="140" height="70" as="geometry" />
        </mxCell>
        <mxCell id="jdVANcnuj8nwFvmUPl1E-27" value="" style="endArrow=none;html=1;fontSize=12;entryX=0;entryY=0.5;entryDx=0;entryDy=0;" edge="1" parent="1" source="jdVANcnuj8nwFvmUPl1E-20" target="jdVANcnuj8nwFvmUPl1E-9">
          <mxGeometry width="50" height="50" relative="1" as="geometry">
            <mxPoint x="380" y="670" as="sourcePoint" />
            <mxPoint x="430" y="620" as="targetPoint" />
          </mxGeometry>
        </mxCell>
        <mxCell id="jdVANcnuj8nwFvmUPl1E-28" value="" style="endArrow=none;html=1;fontSize=12;entryX=0;entryY=0.5;entryDx=0;entryDy=0;" edge="1" parent="1">
          <mxGeometry width="50" height="50" relative="1" as="geometry">
            <mxPoint x="70" y="529.5" as="sourcePoint" />
            <mxPoint x="150" y="529.5" as="targetPoint" />
          </mxGeometry>
        </mxCell>
        <mxCell id="jdVANcnuj8nwFvmUPl1E-29" value="" style="endArrow=none;html=1;fontSize=12;entryX=0;entryY=0.5;entryDx=0;entryDy=0;" edge="1" parent="1">
          <mxGeometry width="50" height="50" relative="1" as="geometry">
            <mxPoint x="70" y="389.5" as="sourcePoint" />
            <mxPoint x="150" y="389.5" as="targetPoint" />
          </mxGeometry>
        </mxCell>
      </root>
    </mxGraphModel>
  </diagram>
</mxfile>
